<svg width="400" height="400" viewBox="0 0 400 400" fill="none" xmlns="http://www.w3.org/2000/svg">
  <defs>
    <linearGradient id="paint0_linear" x1="0" y1="0" x2="400" y2="400" gradientUnits="userSpaceOnUse">
      <stop stop-color="#2DD4BF" stop-opacity="0.35" />
      <stop offset="1" stop-color="#38BDF8" stop-opacity="0.2" />
    </linearGradient>
  </defs>
  <rect x="0" y="0" width="400" height="400" fill="url(#paint0_linear)" opacity="0.45" />
  <g opacity="0.25" stroke="#ffffff" stroke-width="0.5">
    <path d="M0 50H400" />
    <path d="M0 100H400" />
    <path d="M0 150H400" />
    <path d="M0 200H400" />
    <path d="M0 250H400" />
    <path d="M0 300H400" />
    <path d="M0 350H400" />
    <path d="M50 0V400" />
    <path d="M100 0V400" />
    <path d="M150 0V400" />
    <path d="M200 0V400" />
    <path d="M250 0V400" />
    <path d="M300 0V400" />
    <path d="M350 0V400" />
  </g>
  <g opacity="0.35" fill="#ffffff">
    <circle cx="60" cy="60" r="6" />
    <circle cx="340" cy="120" r="5" />
    <circle cx="280" cy="320" r="7" />
    <circle cx="110" cy="270" r="4" />
    <circle cx="200" cy="180" r="5" />
  </g>
</svg>
